<svg width="35" height="24" viewBox="0 0 35 24" fill="none" xmlns="http://www.w3.org/2000/svg">
<path d="M14.2626 13.2187C12.693 11.9664 10.8719 11.3046 8.99067 11.3046C4.75896 11.3046 1.17583 14.7363 0.0766137 19.8359C-0.114793 20.7448 0.0561058 21.6887 0.548293 22.427C1.02681 23.1445 1.74486 23.5546 2.51048 23.5546H32.375C26.7313 23.5546 23.8985 21.5241 19.6219 17.8398L14.2626 13.2187ZM27.0977 12.2234L25.614 3.66479C25.4568 2.72144 24.9168 1.88745 24.1309 1.35425C23.3451 0.821044 22.3678 0.626904 21.4381 0.825146L10.9868 3.04792C9.49927 3.36237 8.39458 4.59448 8.23052 6.09839L7.85318 9.66401C8.22915 9.61616 8.59802 9.55464 8.98794 9.55464C11.2777 9.55464 13.4723 10.3476 15.4083 11.8996L20.7676 16.5136C24.6504 19.8632 27.0622 21.8046 32.3723 21.8046C33.8215 21.8046 34.9973 20.6289 34.9973 19.1796C35 17.7906 33.3813 12.65 27.0977 12.2234Z" fill="black"/>
</svg>
